# Blender v2.76 (sub 0) OBJ File: ''
# www.blender.org
mtllib Sword.mtl
o weapon_007_s
v 0.034710 0.414636 1.834474
v 0.034543 0.115882 1.872292
v 0.034543 0.114792 0.651681
v 0.034710 0.416367 0.649882
v 0.034710 0.494214 0.588268
v 0.047198 0.493946 0.426399
v 0.034543 0.184576 1.953084
v 0.034626 0.320187 1.951932
v 0.034376 0.026317 0.426250
v 0.034543 0.026029 0.489496
v -0.034536 0.184576 1.953084
v -0.034536 0.115882 1.872292
v 0.034543 0.115882 1.872292
v 0.034543 0.184576 1.953084
v -0.034721 0.414636 1.834474
v -0.034628 0.320187 1.951932
v 0.034626 0.320187 1.951932
v 0.034710 0.414636 1.834474
v -0.034721 0.416367 0.649882
v 0.034710 0.416367 0.649882
v -0.047209 0.493946 0.426399
v -0.034721 0.494214 0.588268
v 0.034710 0.494214 0.588268
v 0.047198 0.493946 0.426399
v -0.069719 0.496502 0.346758
v -0.069719 0.496502 0.430325
v 0.069719 0.496502 0.430325
v 0.069719 0.496502 0.346758
v -0.039863 0.020066 0.430325
v 0.039863 0.020066 0.430325
v 0.069719 0.496502 0.430325
v -0.069719 0.496502 0.430325
v -0.039863 0.020066 0.430325
v -0.039863 0.020066 -0.054358
v 0.039863 0.020066 -0.054358
v 0.039863 0.020066 0.430325
v -0.039863 0.020066 -0.054358
v -0.066147 0.439287 -0.054358
v 0.066147 0.439287 -0.054358
v 0.039863 0.020066 -0.054358
v -0.066147 0.439287 -0.054358
v -0.068857 0.482704 0.030209
v 0.068857 0.482704 0.030209
v 0.066147 0.439287 -0.054358
v -0.034536 0.184576 1.953084
v -0.034628 0.320187 1.951932
v -0.034721 0.414636 1.834474
v -0.034536 0.115882 1.872292
v -0.034536 0.114792 0.651680
v -0.034721 0.416367 0.649882
v -0.047209 0.493946 0.426399
v -0.034721 0.494214 0.588268
v -0.034536 0.026029 0.489496
v -0.034351 0.026317 0.426250
v 0.034376 0.026317 0.426250
v 0.034543 0.026029 0.489496
v -0.034536 0.026029 0.489496
v -0.034351 0.026317 0.426250
v -0.034536 0.114792 0.651680
v 0.034543 0.114792 0.651681
v -0.034536 0.115882 1.872292
v 0.034543 0.115882 1.872292
v 0.047247 0.136583 0.346758
v -0.047247 0.136583 0.346758
v -0.069719 0.496502 0.346758
v 0.069719 0.496502 0.346758
v -0.039863 0.020066 -0.054358
v -0.047247 0.136583 0.030209
v -0.068857 0.482704 0.030209
v -0.066147 0.439287 -0.054358
v -0.047247 0.136583 0.346758
v -0.039863 0.020066 0.430325
v -0.069719 0.496502 0.430325
v -0.069719 0.496502 0.346758
v 0.047247 0.136583 0.030209
v 0.039863 0.020066 -0.054358
v 0.066147 0.439287 -0.054358
v 0.068857 0.482704 0.030209
v 0.039863 0.020066 0.430325
v 0.047247 0.136583 0.346758
v 0.069719 0.496502 0.346758
v 0.069719 0.496502 0.430325
v -0.042092 0.310360 0.353483
v -0.046107 0.416861 0.353483
v -0.040682 0.416775 0.022963
v -0.036665 0.310179 0.022963
v 0.040427 0.416775 0.022963
v 0.043313 0.416861 0.353483
v 0.039299 0.310360 0.353483
v 0.036410 0.310179 0.022963
v -0.040682 0.416775 0.022963
v -0.046107 0.416861 0.353483
v 0.043313 0.416861 0.353483
v 0.040427 0.416775 0.022963
v -0.042092 0.310360 0.353483
v -0.036665 0.310179 0.022963
v 0.036410 0.310179 0.022963
v 0.039299 0.310360 0.353483
v 0.047247 0.136583 0.030209
v 0.068857 0.482704 0.030209
v -0.068857 0.482704 0.030209
v -0.047247 0.136583 0.030209
v 0.047247 0.136583 0.346758
v 0.047247 0.136583 0.030209
v -0.047247 0.136583 0.030209
v -0.047247 0.136583 0.346758
v -0.034628 0.320187 1.951932
v -0.034536 0.184576 1.953084
v 0.034543 0.184576 1.953084
v 0.034626 0.320187 1.951932
v -0.034721 0.494214 0.588268
v -0.034721 0.416367 0.649882
v 0.034710 0.416367 0.649882
v 0.034710 0.494214 0.588268
v 0.000000 0.422434 2.079806
v 0.024798 0.320519 1.940688
v 0.024798 0.408263 1.832443
v 0.000000 0.554054 1.915684
v 0.000000 0.561381 0.586493
v 0.024798 0.407718 0.589511
v 0.024798 0.192909 1.940688
v 0.000000 0.126866 2.079806
v 0.024798 0.122097 1.871532
v 0.000000 -0.030106 1.934173
v 0.000000 -0.038440 0.505125
v 0.024798 0.122114 0.506923
v 0.000000 0.422434 2.079806
v 0.000000 0.554054 1.915684
v -0.024798 0.408263 1.832443
v -0.024798 0.320519 1.940688
v 0.000000 0.561381 0.586493
v -0.024798 0.407718 0.589511
v -0.024798 0.192909 1.940688
v 0.000000 0.126866 2.079806
v -0.024798 0.122097 1.871532
v 0.000000 -0.030106 1.934173
v 0.000000 -0.038440 0.505125
v -0.024798 0.122114 0.506923
vt 0.244647 0.252707
vt 0.223320 0.412255
vt 0.867889 0.412255
vt 0.867889 0.252707
vt 0.901066 0.207020
vt 0.986376 0.207020
vt 0.180664 0.370021
vt 0.180664 0.299633
vt 0.986376 0.466219
vt 0.950830 0.466219
vt 0.932124 0.188797
vt 0.987016 0.188797
vt 0.987016 0.149968
vt 0.932124 0.149968
vt 0.779646 0.188797
vt 0.852836 0.188797
vt 0.852836 0.149968
vt 0.779646 0.149968
vt 0.145338 0.188797
vt 0.145338 0.149968
vt 0.017256 0.188797
vt 0.090446 0.188797
vt 0.090446 0.149968
vt 0.017256 0.149968
vt 0.318699 0.142048
vt 0.353855 0.142048
vt 0.353855 0.091266
vt 0.318699 0.091266
vt 0.553074 0.142048
vt 0.553074 0.091266
vt 0.767918 0.142048
vt 0.767918 0.091266
vt 0.943699 0.142048
vt 0.943699 0.091266
vt 0.982762 0.142048
vt 0.982762 0.091266
vt 0.835519 0.208684
vt 0.813019 0.208684
vt 0.813019 0.236809
vt 0.835519 0.236809
vt 0.745519 0.236809
vt 0.745519 0.208684
vt 0.289894 0.236809
vt 0.289894 0.208684
vt 0.494352 0.427258
vt 0.494352 0.466107
vt 0.608177 0.466107
vt 0.608177 0.427258
vt 0.015361 0.200636
vt 0.081169 0.247089
vt 0.266980 0.247089
vt 0.243753 0.200636
vt 0.081169 0.421286
vt 0.015361 0.466429
vt 0.274722 0.466429
vt 0.274722 0.421286
vt 0.767824 0.517443
vt 0.767824 0.470440
vt 0.619476 0.470440
vt 0.619476 0.517443
vt 0.767824 0.427053
vt 0.619476 0.427053
vt 0.947609 0.475682
vt 0.786158 0.475682
vt 0.786158 0.517399
vt 0.947609 0.517399
vt 0.400729 0.427258
vt 0.290924 0.427258
vt 0.290924 0.466107
vt 0.400729 0.466107
vt 0.537828 0.002107
vt 0.537828 0.085635
vt 0.612195 0.085635
vt 0.612195 0.002107
vt 0.997752 0.002107
vt 0.997752 0.085635
vt 0.467375 0.085635
vt 0.455200 0.002107
vt 0.393008 0.085635
vt 0.394115 0.002107
vt -0.001032 0.002107
vt -0.001032 0.085635
vn 1.000000 -0.000600 0.000100
vn 1.000000 -0.000500 0.000200
vn 0.999900 -0.009700 0.012600
vn 0.999300 0.005600 0.036200
vn 0.998200 0.009500 0.059500
vn 0.999100 -0.002600 0.042200
vn 1.000000 -0.000500 0.000400
vn 1.000000 -0.000600 0.000200
vn 0.999600 -0.025800 0.009400
vn 0.000000 -0.761800 0.647800
vn 0.000000 -0.938400 0.345500
vn -0.000100 -0.938400 0.345500
vn 0.000000 0.943000 0.332800
vn 0.000000 0.779300 0.626600
vn 0.000000 1.000000 0.001500
vn 0.000000 1.000000 -0.001700
vn 0.000000 1.000000 0.000000
vn 0.000000 -0.000000 1.000000
vn 0.000000 -1.000000 -0.000000
vn 0.000000 0.000000 -1.000000
vn 0.000000 0.889600 -0.456700
vn -1.000000 -0.000600 0.000400
vn -1.000000 -0.000500 0.000500
vn -1.000000 -0.000600 0.000100
vn -1.000000 -0.000600 0.000200
vn -0.999900 -0.009800 0.012600
vn -0.999300 0.005500 0.036200
vn -0.999100 -0.002600 0.042100
vn -0.998200 0.009400 0.059000
vn -0.999600 -0.025800 0.009300
vn 0.000000 -1.000000 -0.004600
vn -0.000000 -0.969300 0.245800
vn -0.000000 -0.968700 0.248200
vn -0.998000 -0.062900 -0.000400
vn -0.998000 -0.062800 -0.000200
vn -0.998000 -0.062500 -0.000400
vn -0.998000 -0.062900 0.000500
vn -0.998000 -0.063000 0.000400
vn -0.998000 -0.062500 0.000600
vn -0.998000 -0.062400 0.000600
vn 0.998000 -0.062900 -0.000400
vn 0.998000 -0.063000 -0.000400
vn 0.998000 -0.062400 -0.000400
vn 0.998100 -0.062300 0.000000
vn 0.998000 -0.062900 0.000400
vn 0.998000 -0.062800 0.000400
vn 0.998000 -0.062500 0.000500
vn -0.999200 -0.037700 -0.016400
vn 0.999300 -0.037700 -0.008700
vn 0.000000 1.000000 -0.000300
vn 0.000000 -1.000000 0.000500
vn 0.000000 0.008500 1.000000
vn 0.000000 0.620600 0.784100
vn 0.989600 0.066900 0.127600
vn 0.989000 0.052300 0.138200
vn 0.989000 0.141600 0.042300
vn 0.989300 0.135900 0.053100
vn 0.986600 0.163300 0.000400
vn 0.987300 -0.055100 0.148800
vn 0.987400 -0.060100 0.146500
vn 0.989000 -0.135000 0.060600
vn 0.989000 -0.135500 0.059100
vn 0.987700 -0.156500 0.000500
vn -0.989600 0.066900 0.127600
vn -0.989300 0.135900 0.053100
vn -0.989000 0.141600 0.042300
vn -0.989000 0.052300 0.138200
vn -0.986600 0.163300 0.000400
vn -0.987300 -0.055100 0.148800
vn -0.987400 -0.060100 0.146500
vn -0.989000 -0.135100 0.060600
vn -0.989000 -0.135500 0.059100
vn -0.987700 -0.156500 0.000500
usemtl C:\Users\Eric\Desktop\dump\callofminiinfinity.app\Data\Texture2
s 1
f 1/1/1 2/2/2 3/3/3
f 1/1/1 3/3/3 4/4/4
f 3/3/3 5/5/5 4/4/4
f 3/3/3 6/6/6 5/5/5
f 1/1/1 7/7/7 2/2/2
f 1/1/1 8/8/8 7/7/7
f 3/3/3 9/9/9 6/6/6
f 3/3/3 10/10/9 9/9/9
f 11/11/10 12/12/11 13/13/12
f 11/11/10 13/13/12 14/14/10
f 15/15/13 16/16/14 17/17/14
f 15/15/13 17/17/14 18/18/13
f 19/19/15 15/15/13 18/18/13
f 19/19/15 18/18/13 20/20/15
f 21/21/16 22/22/16 23/23/16
f 21/21/16 23/23/16 24/24/16
f 25/25/17 26/26/17 27/27/17
f 25/25/17 27/27/17 28/28/17
f 29/29/18 30/30/18 31/27/18
f 29/29/18 31/27/18 32/26/18
f 33/29/19 34/31/19 35/32/19
f 33/29/19 35/32/19 36/30/19
f 37/31/20 38/33/20 39/34/20
f 37/31/20 39/34/20 40/32/20
f 41/33/21 42/35/21 43/36/21
f 41/33/21 43/36/21 44/34/21
f 45/7/22 46/8/23 47/1/24
f 45/7/22 47/1/24 48/2/25
f 47/1/24 49/3/26 48/2/25
f 47/1/24 50/4/27 49/3/26
f 50/4/27 51/6/28 49/3/26
f 50/4/27 52/5/29 51/6/28
f 51/6/28 53/10/30 49/3/26
f 51/6/28 54/9/30 53/10/30
f 55/37/31 56/38/32 57/39/32
f 55/37/31 57/39/32 58/40/31
f 56/38/32 59/41/33 57/39/32
f 56/38/32 60/42/33 59/41/33
f 60/42/33 61/43/11 59/41/33
f 60/42/33 62/44/11 61/43/11
f 63/45/20 64/46/20 65/47/20
f 63/45/20 65/47/20 66/48/20
f 67/49/34 68/50/35 69/51/36
f 67/49/34 69/51/36 70/52/36
f 71/53/37 68/50/35 67/49/34
f 71/53/37 67/49/34 72/54/38
f 73/55/39 71/53/37 72/54/38
f 73/55/39 74/56/40 71/53/37
f 75/50/41 76/49/42 77/52/43
f 75/50/41 77/52/43 78/51/44
f 79/54/45 76/49/42 75/50/41
f 79/54/45 75/50/41 80/53/46
f 81/56/47 79/54/45 80/53/46
f 81/56/47 82/55/47 79/54/45
f 83/57/48 84/58/48 85/59/48
f 83/57/48 85/59/48 86/60/48
f 87/59/49 88/58/49 89/57/49
f 87/59/49 89/57/49 90/60/49
f 91/59/50 92/58/50 93/61/50
f 91/59/50 93/61/50 94/62/50
f 95/63/51 96/64/51 97/65/51
f 95/63/51 97/65/51 98/66/51
f 99/67/18 100/68/18 101/69/18
f 99/67/18 101/69/18 102/70/18
f 103/45/17 104/67/17 105/70/17
f 103/45/17 105/70/17 106/46/17
f 107/16/52 108/11/52 109/14/52
f 107/16/52 109/14/52 110/17/52
f 111/22/53 112/19/53 113/20/53
f 111/22/53 113/20/53 114/23/53
f 115/71/54 116/72/55 117/73/56
f 115/71/54 117/73/56 118/74/57
f 117/73/56 119/75/58 118/74/57
f 117/73/56 120/76/58 119/75/58
f 115/71/54 121/77/59 116/72/55
f 115/71/54 122/78/60 121/77/59
f 122/78/60 123/79/61 121/77/59
f 122/78/60 124/80/62 123/79/61
f 123/79/61 124/80/62 125/81/63
f 123/79/61 125/81/63 126/82/63
f 127/71/64 128/74/65 129/73/66
f 127/71/64 129/73/66 130/72/67
f 129/73/66 128/74/65 131/75/68
f 129/73/66 131/75/68 132/76/68
f 127/71/64 130/72/67 133/77/69
f 127/71/64 133/77/69 134/78/70
f 134/78/70 133/77/69 135/79/71
f 134/78/70 135/79/71 136/80/72
f 135/79/71 137/81/73 136/80/72
f 135/79/71 138/82/73 137/81/73
